<svg width="35" height="35" viewBox="0 0 35 35" fill="none" xmlns="http://www.w3.org/2000/svg">
<path d="M31.4748 17.3686C31.651 14.332 30.8998 11.3136 29.3209 8.71383C27.742 6.11403 25.4101 4.05565 22.6344 2.81172C19.8587 1.5678 16.7704 1.19711 13.7792 1.74884C10.788 2.30056 8.03515 3.74862 5.88589 5.90094C3.73662 8.05326 2.29247 10.8081 1.74499 13.8001C1.19751 16.7921 1.57258 19.8799 2.82044 22.6538C4.0683 25.4277 6.12999 27.7568 8.73203 29.3319C11.3341 30.9071 14.3535 31.654 17.3898 31.4736M2.49984 11.5019H30.4998M2.49984 21.5019H20.6665" stroke="black" stroke-width="3" stroke-linecap="round" stroke-linejoin="round"/>
<path d="M15.6666 1.50193C12.8588 6.00128 11.3702 11.1984 11.3702 16.5019C11.3702 21.8055 12.8588 27.0026 15.6666 31.5019M17.3332 1.50193C20.9014 7.21993 22.3143 14.0226 21.3182 20.6886M28.1666 33.1686V23.1686M28.1666 23.1686L33.1666 28.1686M28.1666 23.1686L23.1666 28.1686" stroke="black" stroke-width="3" stroke-linecap="round" stroke-linejoin="round"/>
</svg>
